<svg width="873" height="1812" viewBox="0 0 873 1812" fill="none" xmlns="http://www.w3.org/2000/svg">
  <!-- Frame Background -->
  <path d="M4.905 225.581C4.905 146.62 4.905 107.14 20.273 76.981C20.273 76.981 81.894 15.367 81.894 15.367C112.057 0 151.542 0 230.511 0H642.489C721.457 0 760.945 0 791.107 15.367L852.726 76.981C868.096 107.14 868.096 146.62 868.096 225.581V1586.42C868.096 1665.38 868.096 1704.86 852.726 1735.02L791.107 1796.63C760.945 1812 721.457 1812 642.489 1812H230.511C151.542 1812 112.057 1812 81.894 1796.63L20.274 1735.02C4.905 1704.86 4.905 1665.38 4.905 1586.42V225.581Z" fill="#434343"/>

  <!-- Bezel -->
  <path d="M649.11 11.033C721.899 11.033 758.296 11.033 786.099 25.197L842.893 81.989C857.06 109.788 857.06 146.179 857.06 218.96V1593.04C857.06 1665.82 857.06 1702.21 842.893 1730.01L786.099 1786.8C758.296 1800.97 721.899 1800.97 649.11 1800.97H223.89C151.101 1800.97 114.706 1800.97 86.904 1786.8L30.105 1730.01C15.94 1702.21 15.94 1665.82 15.94 1593.04V218.96C15.94 146.179 15.94 109.788 30.105 81.99L86.904 25.197C114.706 11.033 151.101 11.033 223.89 11.033H649.11Z" fill="#000000" stroke="#FFFFFF" stroke-width="2" stroke-opacity="0.7" filter="url(#bezelGlow)"/>

  <!-- Dynamic Island -->
  <path d="M517.514 53.33H355.486C336.913 53.33 321.857 68.013 321.857 86.125C321.857 104.237 336.913 118.92 355.486 118.92H517.514C536.087 118.92 551.143 104.237 551.143 86.125C551.143 68.013 536.087 53.33 517.514 53.33Z" fill="#000000"/>

  <!-- Camera (simplified) -->
  <circle cx="517.5" cy="86.4" r="9.5" fill="#131423"/>
  <circle cx="517.5" cy="86.4" r="7.5" fill="#07144C"/>
  <circle cx="517.5" cy="86.4" r="3.5" fill="url(#cameraGradient)"/>

  <!-- Speaker -->
  <path d="M515.668 11.84C515.24 12.156 514.851 12.54 514.518 12.983L514.322 13.26L513.217 14.918C512.604 15.838 511.657 16.356 510.675 16.356H362.325C361.404 16.356 360.515 15.9 359.902 15.086L359.783 14.918L358.678 13.26C358.351 12.817 357.962 12.433 357.532 12.117C357.102 11.801 357.332 11.84 357.332 11.84H515.668Z" fill="#0F0E0E" stroke="#353535" stroke-width="2"/>

  <!-- Buttons Left -->
  <path d="M0 343.528C0 342.372 1.176 341.436 2.627 341.436H6.131V417.446H2.627C1.177 417.446 0 416.51 0 415.354V343.528Z" fill="#434343"/>
  <path d="M0 476.898C0 475.888 1.176 475.068 2.627 475.068H6.131V598.892H2.627C1.177 598.892 0 598.073 0 597.063V476.898Z" fill="#434343"/>
  <path d="M0 633.822C0 632.811 1.176 631.992 2.627 631.992H6.131V755.816H2.627C1.177 755.816 0 754.997 0 753.986V633.822Z" fill="#434343"/>

  <!-- Button Right -->
  <path d="M873 518.589C873 517.573 871.973 516.75 870.701 516.75H866.869V712.907H870.701C871.973 712.907 873 712.084 873 711.068V518.589Z" fill="#434343"/>

  <!-- Antennas -->
  <rect x="690.308" y="0" width="11.648" height="12.26" fill="#000000" fill-opacity="0.25"/>
  <rect x="4.905" y="171.636" width="12.26" height="11.647" fill="#000000" fill-opacity="0.25"/>
  <rect x="855.834" y="171.636" width="12.262" height="11.647" fill="#000000" fill-opacity="0.25"/>
  <rect x="4.905" y="1629.33" width="12.26" height="11.65" fill="#000000" fill-opacity="0.25"/>
  <rect x="855.834" y="1478.53" width="12.262" height="11.04" fill="#000000" fill-opacity="0.25"/>
  <rect x="171.044" y="1799.74" width="11.648" height="12.26" fill="#000000" fill-opacity="0.25"/>

  <!-- Gradients and Filters -->
  <defs>
    <linearGradient id="cameraGradient" x1="517.5" y1="82.9" x2="517.5" y2="90" gradientUnits="userSpaceOnUse">
      <stop offset="0" stop-color="#1D869C" stop-opacity="0.27"/>
      <stop offset="0.371" stop-color="#2371C6" stop-opacity="0.3"/>
      <stop offset="1" stop-color="#040AAD" stop-opacity="0.3"/>
    </linearGradient>
    <filter id="bezelGlow" x="-5%" y="-5%" width="110%" height="110%">
      <feGaussianBlur in="SourceGraphic" stdDeviation="2.5"/>
      <feComponentTransfer>
        <feFuncA type="linear" slope="0.7"/>
      </feComponentTransfer>
    </filter>
  </defs>
</svg>
